<?xml version="1.0" encoding="utf-8"?>
<!-- Generator: Adobe Illustrator 20.1.0, SVG Export Plug-In . SVG Version: 6.00 Build 0)  -->
<!DOCTYPE svg PUBLIC "-//W3C//DTD SVG 1.1//EN" "http://www.w3.org/Graphics/SVG/1.1/DTD/svg11.dtd" [
	<!ENTITY st0 "fill:#CC1725;">
	<!ENTITY st1 "fill:#F8F6DF;">
]>
<svg version="1.1" xmlns="http://www.w3.org/2000/svg" xmlns:xlink="http://www.w3.org/1999/xlink" x="0px" y="0px"
	 viewBox="0 0 255.1 255.1" style="enable-background:new 0 0 255.1 255.1;" xml:space="preserve">
<g id="fill">
	<path style="&st0;" d="M108.4,219.7c-4.8-8.9-6.9-24-6.5-28.6c0.2-3.1-1.4-6-4.1-7.5c-5.3-2.8-12-5.8-18.3-7.2
		c-0.2-0.1-0.5-0.3-0.5-0.5c-0.7-1.9-2.4-3.5-4.8-4.2c-3.6-1-7.2,0.6-8.1,3.6c-0.1,0.5-0.2,0.9-0.2,1.4c0,0.2-0.1,0.5-0.4,0.6
		c-2.5,1.1-4.9,1.9-7.2,2.6c-0.2,0.1-0.4-0.1-0.3-0.3c0.7-4.2-2.4-8.6-7.4-10c-5.3-1.5-10.6,0.8-11.9,5.3c-0.5,1.8-0.3,3.7,0.6,5.4
		c0.1,0.2,0,0.3-0.2,0.3c-10-2.8-15.3-9.8-15-13.5c0.1-1.6,0.7-2.4,2-3.6c0.2-0.2,0.3-0.1,0.3,0.1c0,1.3,0.3,2.5,1.1,3.5
		c2.1,2.7,6.4,2.8,9.6,0.3c3.2-2.5,4.1-6.7,1.9-9.4c-0.5-0.6-1.1-1.1-1.7-1.4c-0.2-0.1-0.2-0.3,0-0.4c0.3-0.2,0.6-0.3,0.9-0.5
		c1.7-0.8,5.5-2,5.4-2.9c-0.3-2.3-1.9-1.4-5.5-2.1c-4.9-0.9-8.7-3.1-11.6-5.5c-5.1-4.3-8.1-9.6,2.2-15.3c3.1-1.7,3.1-1.7,8.5-4.1
		c2.5-1.1,4.5-0.8,4.4-1.6c-0.1-1.5-2.2-1-5.1-1.9c-5.2-1.7-4.3-1.6-8-3.4c-8.1-4-7.8-8.9-4.8-12.6c0.1-0.2,0.3-0.1,0.3,0.1
		c0.2,0.9,0.5,1.9,0.9,2.7c2.5,4.7,8.6,6.3,13.5,3.6c4.9-2.7,6.8-8.6,4.3-13.3c-0.3-0.5-0.6-1-1-1.4c-0.2-0.2-0.1-0.3,0.1-0.4
		c1.6-0.2,3.9-0.4,4-1.7c0.2-1.7-2.8-2.1-4.1-2.3c-4.3-0.6-9.8-5.8-12.7-8.3c-5.2-4.5-2.3-8.1,2-12.1c3.6-3.3,8.8-6.1,13.8-7.3
		c0.2-0.1,0.4,0.1,0.3,0.3c-0.2,1.5,0,3,0.7,4.3c2,3.6,6.8,4.8,10.8,2.6c1.7-0.9,3-2.3,3.7-3.9c0.1-0.2,0.3-0.3,0.6-0.2
		c1.9,0.6,3.7,1.2,5.5,1.6c0.2,0.1,0.4,0.3,0.4,0.5c0,1.2,0.3,2.4,0.9,3.6c2,3.6,6.3,5.1,9.8,3.2c2.1-1.1,3.3-3.2,3.5-5.5
		c0-0.2,0.2-0.4,0.5-0.4c10.2-0.6,17.8-4,20.8-5.8c2.4-1.4,2.6-2.8,3.1-5.5c0.7-4,2.7-14.8,6.1-25.9c2-6.5,8.7-10.2,15.3-8.3
		c6.3,1.8,13.9,5.3,18.6,8.1c18.5,9.2,74,59.3,88.8,86.4c2.6,4.7,3.3,7.5,3.4,9c1.2,15-75,77.5-91.6,87l-2.1,1.2
		c-11.2,6.5-21.5,11.7-29.3,8.5C112.7,225.6,109.8,222.1,108.4,219.7z"/>
	<path style="&st1;" d="M97.7,165.2c-7.7-14.2-2.7-32,11.1-40.5c0.4-0.2,0.4-0.8,0-1c-3.5-2.3-6.4-5.3-8.3-8.9
		c-8-14.7-4.1-30,10.9-38.2s32.1-4,40.1,10.7c7.5,13.7,3.4,30.1-10,37.6c-0.4,0.2-0.4,0.7-0.1,1c3.6,2.7,6.8,6.3,9.1,10.6
		c8,14.7,3.8,32.5-11.2,40.6S105.7,179.9,97.7,165.2z"/>
</g>
<g id="lines">
	<g id="art">
		<g>
			<path d="M139.2,181.3c18.3-10,23.9-31.7,14.5-49.1c-0.2-0.5-0.6-1.1-1-1.8c-1.2-2.1-1.3-4.7-0.1-6.8c6.9-12.1,11.1-25.4,4.1-38.1
				c-9.5-17.4-31.1-23.1-49.1-15c-19.1,8.5-26.3,26.2-20,40.8c0.4,1,3.4,7,5.2,10.4c0.7,1.3,0.3,2.7-0.5,4
				c-7.9,11.8-10.7,29.4-3.4,42.5C96.5,181.8,120.9,191.3,139.2,181.3z M97.7,165.2c-7.7-14.2-2.7-32,11.1-40.5c0.4-0.2,0.4-0.8,0-1
				c-3.5-2.3-6.4-5.3-8.3-8.9c-8-14.7-4.1-30,10.9-38.2s32.1-4,40.1,10.7c7.5,13.7,3.4,30.1-10,37.6c-0.4,0.2-0.4,0.7-0.1,1
				c3.6,2.7,6.8,6.3,9.1,10.6c8,14.7,3.8,32.5-11.2,40.6S105.7,179.9,97.7,165.2z"/>
			<ellipse transform="matrix(0.878 -0.4786 0.4786 0.878 -55.3212 82.1096)" cx="133.4" cy="149.6" rx="15.3" ry="15.7"/>
			<ellipse transform="matrix(0.878 -0.4786 0.4786 0.878 -33.0144 77.404)" cx="135.4" cy="103.5" rx="15.3" ry="15.7"/>
			<g>
				<ellipse transform="matrix(0.878 -0.4786 0.4786 0.878 -50.4165 39.1653)" cx="51.6" cy="118.5" rx="7.7" ry="7.3"/>
				<ellipse transform="matrix(0.878 -0.4786 0.4786 0.878 -54.6966 48.7785)" cx="68.4" cy="131.7" rx="6.5" ry="6.1"/>
				<ellipse transform="matrix(0.878 -0.4786 0.4786 0.878 -65.849 46.9745)" cx="59.2" cy="152.7" rx="6.4" ry="7"/>
				<ellipse transform="matrix(0.878 -0.4786 0.4786 0.878 -38.0909 42.0907)" cx="63.5" cy="95.8" rx="6.4" ry="7"/>
				<ellipse transform="matrix(0.878 -0.4786 0.4786 0.878 -61.2692 32.7582)" cx="33.6" cy="136.6" rx="5.9" ry="4.9"/>
				<ellipse transform="matrix(0.911 -0.4125 0.4125 0.911 -30.3743 23.1026)" cx="38.3" cy="81.9" rx="5.9" ry="4.9"/>
				<path d="M148.7,226.3l2-1.2c8.7-5,98.3-71.8,96.5-96.1c-0.3-3.6-1.8-7.8-4.5-12.8c-15.8-29-73-82.3-92.6-92
					c-2.4-1.4-23.8-13.7-36.5-9.3c-3.9,1.4-10,8.3-11.5,12.2c-4.1,10.8-3.9,20.3-5.5,28.1c-0.5,2.4-2,4.4-4.3,5.4
					c-6.7,2.9-18.6,5.6-32.7-2.7C40.9,47,22.5,67.2,17.5,74.1c-2.9,4.1-4.5,5.2-1.9,9.2c3.3,4,4.9,4.8,9,7.1c3.9,2.2,3.8,3.2,0,5.5
					c-2.9,1.8-9.7,4.6-13.8,8.7c-3.7,3.7-3.7,4.8-1.2,8.6c1.2,1.9,4.1,5.9,10.3,8.5c4,1.6,1,1.6-6,7.5c-3.7,3.1-6,7.2-5.7,8.3
					c0.6,2.6,3.8,8.1,6.8,10.3c7.6,5.6,17.4,2.5,4.4,10.4c-3.9,2.4-8.4,6.2-7.1,9c1.7,3.9,4.5,9.1,7.5,13s13.6,23.5,50.6,6.3
					c3.3-1.5,9.8-0.3,17,2.8c2.8,1.2,4.5,4,4.5,7c-0.1,8.2,0.7,20.2,5.3,28.7c2.5,4.5,5.7,9.9,9.8,11.4
					C120.1,241.1,137,233,148.7,226.3z M108.4,219.7c-4.8-8.9-6.9-24-6.5-28.6c0.2-3.1-1.4-6-4.1-7.5c-5.3-2.8-12-5.8-18.3-7.2
					c-0.2-0.1-0.5-0.3-0.5-0.5c-0.7-1.9-2.4-3.5-4.8-4.2c-3.6-1-7.2,0.6-8.1,3.6c-0.1,0.5-0.2,0.9-0.2,1.4c0,0.2-0.1,0.5-0.4,0.6
					c-2.5,1.1-4.9,1.9-7.2,2.6c-0.2,0.1-0.4-0.1-0.3-0.3c0.7-4.2-2.4-8.6-7.4-10c-5.3-1.5-10.6,0.8-11.9,5.3
					c-0.5,1.8-0.3,3.7,0.6,5.4c0.1,0.2,0,0.3-0.2,0.3c-10-2.8-15.3-9.8-15-13.5c0.1-1.6,0.7-2.4,2-3.6c0.2-0.2,0.3-0.1,0.3,0.1
					c0,1.3,0.3,2.5,1.1,3.5c2.1,2.7,6.4,2.8,9.6,0.3c3.2-2.5,4.1-6.7,1.9-9.4c-0.5-0.6-1.1-1.1-1.7-1.4c-0.2-0.1-0.2-0.3,0-0.4
					c0.3-0.2,0.6-0.3,0.9-0.5c1.7-0.8,5.5-2,5.4-2.9c-0.3-2.3-1.9-1.4-5.5-2.1c-4.9-0.9-8.7-3.1-11.6-5.5c-5.1-4.3-8.1-9.6,2.2-15.3
					c3.1-1.7,3.1-1.7,8.5-4.1c2.5-1.1,4.5-0.8,4.4-1.6c-0.1-1.5-2.2-1-5.1-1.9c-5.2-1.7-4.3-1.6-8-3.4c-8.1-4-7.8-8.9-4.8-12.6
					c0.1-0.2,0.3-0.1,0.3,0.1c0.2,0.9,0.5,1.9,0.9,2.7c2.5,4.7,8.6,6.3,13.5,3.6c4.9-2.7,6.8-8.6,4.3-13.3c-0.3-0.5-0.6-1-1-1.4
					c-0.2-0.2-0.1-0.3,0.1-0.4c1.6-0.2,3.9-0.4,4-1.7c0.2-1.7-2.8-2.1-4.1-2.3c-4.3-0.6-9.8-5.8-12.7-8.3c-5.2-4.5-2.3-8.1,2-12.1
					c3.6-3.3,8.8-6.1,13.8-7.3c0.2-0.1,0.4,0.1,0.3,0.3c-0.2,1.5,0,3,0.7,4.3c2,3.6,6.8,4.8,10.8,2.6c1.7-0.9,3-2.3,3.7-3.9
					c0.1-0.2,0.3-0.3,0.6-0.2c1.9,0.6,3.7,1.2,5.5,1.6c0.2,0.1,0.4,0.3,0.4,0.5c0,1.2,0.3,2.4,0.9,3.6c2,3.6,6.3,5.1,9.8,3.2
					c2.1-1.1,3.3-3.2,3.5-5.5c0-0.2,0.2-0.4,0.5-0.4c10.2-0.6,17.8-4,20.8-5.8c2.4-1.4,2.6-2.8,3.1-5.5c0.7-4,2.7-14.8,6.1-25.9
					c2-6.5,8.7-10.2,15.3-8.3c6.3,1.8,13.9,5.3,18.6,8.1c18.5,9.2,74,59.3,88.8,86.4c2.6,4.7,3.3,7.5,3.4,9c1.2,15-75,77.5-91.6,87
					l-2.1,1.2c-11.2,6.5-21.5,11.7-29.3,8.5C112.7,225.6,109.8,222.1,108.4,219.7z"/>
			</g>
		</g>
	</g>
</g>
</svg>
